<svg width="48" height="48" viewBox="0 0 48 48" fill="none" xmlns="http://www.w3.org/2000/svg">
<g clip-path="url(#clip0_383_114)">
<path d="M36.75 0H11.25C5.0368 0 0 5.0368 0 11.25V36.75C0 42.9632 5.0368 48 11.25 48H36.75C42.9632 48 48 42.9632 48 36.75V11.25C48 5.0368 42.9632 0 36.75 0Z" fill="#242938"/>
<mask id="mask0_383_114" style="mask-type:luminance" maskUnits="userSpaceOnUse" x="11" y="5" width="26" height="38">
<path d="M11.4375 5.25H36.4425V42.75H11.4375V5.25Z" fill="white"/>
</mask>
<g mask="url(#mask0_383_114)">
<path d="M17.6906 42.7498C21.1406 42.7498 23.9405 39.9499 23.9405 36.4999V30.2498H17.6906C14.2406 30.2498 11.4404 33.0499 11.4404 36.4999C11.4404 39.9499 14.2406 42.7498 17.6906 42.7498Z" fill="#0ACF83"/>
<path d="M11.4404 24.0002C11.4404 20.5502 14.2406 17.7502 17.6906 17.7502H23.9405V30.2501H17.6906C14.2406 30.2501 11.4404 27.4502 11.4404 24.0002Z" fill="#A259FF"/>
<path d="M11.4404 11.4999C11.4404 8.04994 14.2406 5.25 17.6906 5.25H23.9405V17.7501H17.6906C14.2406 17.7501 11.4404 14.9499 11.4404 11.4999Z" fill="#F24E1E"/>
<path d="M23.9399 5.25H30.1899C33.6399 5.25 36.44 8.04994 36.44 11.4999C36.44 14.9499 33.6399 17.7501 30.1899 17.7501H23.9399V5.25Z" fill="#FF7262"/>
<path d="M36.44 24.0002C36.44 27.4502 33.6399 30.2501 30.1899 30.2501C26.7399 30.2501 23.9399 27.4502 23.9399 24.0002C23.9399 20.5502 26.7399 17.7502 30.1899 17.7502C33.6399 17.7502 36.44 20.5502 36.44 24.0002Z" fill="#1ABCFE"/>
</g>
</g>
<defs>
<clipPath id="clip0_383_114">
<rect width="48" height="48" fill="white"/>
</clipPath>
</defs>
</svg>
