<svg width="48" height="48" viewBox="0 0 48 48" fill="none" xmlns="http://www.w3.org/2000/svg">
<g clip-path="url(#clip0_383_106)">
<path d="M36.75 0H11.25C5.0368 0 0 5.0368 0 11.25V36.75C0 42.9632 5.0368 48 11.25 48H36.75C42.9632 48 48 42.9632 48 36.75V11.25C48 5.0368 42.9632 0 36.75 0Z" fill="#F03C2E"/>
<mask id="mask0_383_106" style="mask-type:luminance" maskUnits="userSpaceOnUse" x="5" y="5" width="38" height="38">
<path d="M5.25 5.25H42.75V42.75H5.25V5.25Z" fill="white"/>
</mask>
<g mask="url(#mask0_383_106)">
<path d="M42.042 22.33L25.6696 5.95772C25.3321 5.61979 24.9018 5.38963 24.4334 5.29641C23.9649 5.20318 23.4793 5.25108 23.0381 5.43403C22.7452 5.55557 22.4791 5.73351 22.2549 5.95772L18.8565 9.35616L23.169 13.6687C24.1721 13.3171 25.3205 13.5573 26.1196 14.3566C26.5001 14.7377 26.7657 15.2181 26.8861 15.743C27.0065 16.2679 26.9768 16.8161 26.8005 17.3249L30.9571 21.4816C31.9627 21.1347 33.1228 21.3584 33.9255 22.1635C34.3276 22.5654 34.6014 23.0776 34.7122 23.6352C34.8231 24.1928 34.766 24.7708 34.5481 25.2959C34.2562 26 33.6966 26.5593 32.9923 26.8508C32.2881 27.1424 31.4969 27.1424 30.7927 26.8508C30.444 26.7063 30.1271 26.4946 29.8603 26.2276C29.0165 25.3838 28.808 24.1417 29.2346 23.1022L25.358 19.2256V29.4269C25.6394 29.5661 25.8966 29.7497 26.1196 29.9707C26.6586 30.5096 26.9613 31.2405 26.9613 32.0027C26.9613 32.7648 26.6586 33.4958 26.1196 34.0347C25.5807 34.5736 24.8498 34.8764 24.0876 34.8764C23.3255 34.8764 22.5945 34.5736 22.0556 34.0347C21.6534 33.633 21.3794 33.1209 21.2684 32.5634C21.1574 32.0058 21.2143 31.4279 21.432 30.9027C21.5765 30.554 21.7884 30.2373 22.0556 29.9707C22.3333 29.6941 22.6415 29.4843 22.9966 29.3437V19.0475C22.6442 18.9035 22.3243 18.6903 22.0556 18.4207C21.6521 18.0176 21.3778 17.5035 21.2676 16.9439C21.1574 16.3844 21.2163 15.8047 21.4368 15.2787L17.183 11.0275L5.95646 22.2423C5.61849 22.58 5.3883 23.0104 5.29501 23.479C5.20173 23.9476 5.24954 24.4334 5.4324 24.8748C5.554 25.1678 5.73207 25.4341 5.95646 25.6583L22.3299 42.0293C22.5541 42.2536 22.8202 42.4315 23.1131 42.553C23.7049 42.7977 24.3696 42.7977 24.9615 42.553C25.2543 42.4315 25.5204 42.2536 25.7446 42.0293L42.042 25.7579C42.2664 25.5337 42.4444 25.2674 42.5659 24.9744C42.6874 24.6813 42.7499 24.3672 42.75 24.05C42.7499 23.7327 42.6874 23.4186 42.5659 23.1255C42.4444 22.8324 42.2664 22.5661 42.042 22.3418" fill="white"/>
</g>
</g>
<defs>
<clipPath id="clip0_383_106">
<rect width="48" height="48" fill="white"/>
</clipPath>
</defs>
</svg>
