<svg width="48" height="48" viewBox="0 0 48 48" fill="none" xmlns="http://www.w3.org/2000/svg">
<g clip-path="url(#clip0_402_1269)">
<path d="M36.75 0H11.25C5.0368 0 0 5.0368 0 11.25V36.75C0 42.9632 5.0368 48 11.25 48H36.75C42.9632 48 48 42.9632 48 36.75V11.25C48 5.0368 42.9632 0 36.75 0Z" fill="#F0DB4F"/>
<path d="M12.6213 40.1119L16.2944 37.8889C17.0032 39.1453 17.6478 40.2084 19.1941 40.2084C20.6763 40.2084 21.6108 39.6287 21.6108 37.3734V22.0363H26.1217V37.4372C26.1217 42.1091 23.383 44.2358 19.3874 44.2358C15.779 44.2358 13.6844 42.3669 12.6211 40.1115M28.5717 39.6285L32.2445 37.5021C33.2114 39.081 34.468 40.2409 36.691 40.2409C38.5602 40.2409 39.752 39.3064 39.752 38.0175C39.752 36.471 38.5276 35.9231 36.4655 35.0213L35.338 34.5377C32.0836 33.1524 29.9247 31.4124 29.9247 27.7393C29.9247 24.3561 32.5025 21.7783 36.5302 21.7783C39.3978 21.7783 41.4599 22.7773 42.9419 25.3871L39.4298 27.6426C38.6564 26.2571 37.819 25.7094 36.5302 25.7094C35.209 25.7094 34.3713 26.5472 34.3713 27.6426C34.3713 28.9958 35.209 29.5436 37.1422 30.3816L38.2698 30.8648C42.104 32.5082 44.2628 34.1833 44.2628 37.953C44.2628 42.0131 41.0731 44.2361 36.7878 44.2361C32.5992 44.2361 29.8927 42.2385 28.5717 39.6285Z" fill="#323330"/>
</g>
<defs>
<clipPath id="clip0_402_1269">
<rect width="48" height="48" fill="white"/>
</clipPath>
</defs>
</svg>
