<svg width="48" height="48" viewBox="0 0 48 48" fill="none" xmlns="http://www.w3.org/2000/svg">
<g clip-path="url(#clip0_383_92)">
<path d="M36.75 0H11.25C5.0368 0 0 5.0368 0 11.25V36.75C0 42.9632 5.0368 48 11.25 48H36.75C42.9632 48 48 42.9632 48 36.75V11.25C48 5.0368 42.9632 0 36.75 0Z" fill="#242938"/>
<path d="M22.4771 5.83427C23.3994 5.30646 24.6005 5.30402 25.5219 5.83427C30.1572 8.45365 34.7941 11.0687 39.4287 13.6896C40.3006 14.1807 40.8836 15.1508 40.8747 16.1552V31.9136C40.8813 32.9597 40.2406 33.9531 39.3209 34.4329C34.7007 37.0378 30.0828 39.6458 25.4634 42.2507C24.5223 42.7888 23.297 42.7474 22.385 42.165C20.9999 41.3622 19.6124 40.563 18.2272 39.7609C17.9441 39.5922 17.6249 39.4579 17.4251 39.1834C17.6019 38.9453 17.9178 38.9156 18.1745 38.8116C18.7526 38.6277 19.2837 38.3325 19.8147 38.0462C19.9492 37.9543 20.1131 37.9896 20.2419 38.0717C21.4263 38.7508 22.6004 39.4498 23.7888 40.1224C24.0423 40.2688 24.299 40.0744 24.5157 39.9537C29.0495 37.3911 33.5889 34.8385 38.1221 32.2752C38.2901 32.1943 38.3829 32.016 38.3692 31.8321C38.3724 26.6336 38.3699 21.4345 38.3709 16.2358C38.39 16.0273 38.2692 15.8353 38.0804 15.7498C33.4764 13.1569 28.8744 10.5602 24.2711 7.96671C24.1913 7.91192 24.0968 7.88251 24.0001 7.88234C23.9033 7.88217 23.8088 7.91125 23.7288 7.96577C19.1253 10.5602 14.5244 13.1595 9.92093 15.7521C9.73287 15.8378 9.60668 16.0266 9.62899 16.2358C9.62993 21.4345 9.62899 26.6336 9.62899 31.8328C9.62095 31.9226 9.64066 32.0128 9.68545 32.091C9.73025 32.1693 9.79797 32.2319 9.87949 32.2705C11.1078 32.967 12.3378 33.6587 13.5671 34.353C14.2597 34.7256 15.1098 34.9472 15.8729 34.6616C16.5461 34.4202 17.018 33.733 17.0052 33.0182C17.0116 27.8501 17.0021 22.6813 17.0099 17.5138C16.9931 17.2845 17.2107 17.095 17.4339 17.1167C18.0241 17.1126 18.6151 17.1086 19.2054 17.1182C19.4517 17.1126 19.6212 17.3597 19.5909 17.5907C19.5884 22.7916 19.5972 27.9925 19.5869 33.1931C19.5884 34.5793 19.019 36.0876 17.7369 36.7658C16.1576 37.5838 14.2053 37.4104 12.6449 36.6259C11.2942 35.9517 10.0049 35.1559 8.67818 34.4336C7.75605 33.9565 7.11855 32.9592 7.12512 31.9138V16.1552C7.11537 15.13 7.72174 14.1422 8.62043 13.6583C13.2399 11.0515 17.8586 8.4424 22.4771 5.83427Z" fill="#81CD39"/>
<path d="M26.507 16.7506C28.5217 16.6209 30.6785 16.6737 32.4915 17.6664C33.8953 18.4269 34.6734 20.0232 34.6981 21.5827C34.6589 21.7929 34.439 21.9089 34.2382 21.8945C33.6538 21.8937 33.0689 21.9026 32.4845 21.8906C32.2365 21.9001 32.0924 21.6716 32.0613 21.4524C31.8933 20.7061 31.4863 19.9672 30.7841 19.6072C29.7059 19.0676 28.4561 19.0947 27.2804 19.106C26.4223 19.1514 25.4994 19.2258 24.7723 19.7304C24.2141 20.1127 24.0446 20.8844 24.2437 21.506C24.4316 21.9522 24.9466 22.0962 25.3683 22.229C27.7963 22.8641 30.3691 22.8007 32.7508 23.6364C33.7368 23.9771 34.7013 24.6395 35.0388 25.6719C35.4804 27.0556 35.2869 28.7094 34.3023 29.8201C33.504 30.7342 32.3413 31.2318 31.1816 31.502C29.6388 31.8461 28.0378 31.8549 26.471 31.7021C24.9978 31.5341 23.4646 31.1471 22.3275 30.1434C21.3549 29.2989 20.88 27.983 20.927 26.7132C20.9383 26.4987 21.1518 26.3491 21.3573 26.3667C21.9459 26.3621 22.5346 26.3604 23.1232 26.3677C23.3585 26.3508 23.5327 26.5541 23.5449 26.7757C23.6533 27.4865 23.9205 28.2327 24.5405 28.6541C25.7368 29.426 27.2381 29.3731 28.6079 29.3947C29.7429 29.3444 31.0169 29.3292 31.943 28.5791C32.4316 28.1512 32.5764 27.4353 32.4444 26.8196C32.3013 26.2996 31.7574 26.0574 31.2903 25.8989C28.8935 25.1409 26.2918 25.4159 23.9182 24.5585C22.9545 24.218 22.0226 23.5741 21.6525 22.5841C21.1359 21.1829 21.3725 19.4497 22.4602 18.3766C23.5207 17.3088 25.0514 16.8976 26.507 16.7506Z" fill="#81CD39"/>
</g>
<defs>
<clipPath id="clip0_383_92">
<rect width="48" height="48" fill="white"/>
</clipPath>
</defs>
</svg>
