<svg width="48" height="48" viewBox="0 0 48 48" fill="none" xmlns="http://www.w3.org/2000/svg">
<g clip-path="url(#clip0_402_1275)">
<path d="M36.75 0H11.25C5.0368 0 0 5.0368 0 11.25V36.75C0 42.9632 5.0368 48 11.25 48H36.75C42.9632 48 48 42.9632 48 36.75V11.25C48 5.0368 42.9632 0 36.75 0Z" fill="#242938"/>
<path d="M24 27.5536C25.932 27.5536 27.498 25.9874 27.498 24.0556C27.498 22.1238 25.932 20.5576 24 20.5576C22.068 20.5576 20.502 22.1238 20.502 24.0556C20.502 25.9874 22.0681 27.5536 24 27.5536Z" fill="#00D8FF"/>
<path d="M24.0004 16.9434C28.6969 16.9434 33.0598 17.6172 36.3495 18.7499C40.3131 20.1144 42.75 22.1827 42.75 24.0556C42.75 26.0073 40.1674 28.2046 35.9109 29.6148C32.6931 30.6809 28.4586 31.2374 24.0004 31.2374C19.4295 31.2374 15.1011 30.715 11.8468 29.603C7.72969 28.1958 5.25 25.9702 5.25 24.0556C5.25 22.1979 7.57687 20.1455 11.4847 18.7831C14.7866 17.6319 19.2572 16.9434 23.9996 16.9434H24.0004Z" stroke="#00D8FF" stroke-width="1.67081"/>
<path d="M17.8086 20.5196C20.1549 16.4512 22.9181 13.0084 25.5428 10.7246C28.7048 7.97269 31.7141 6.89494 33.3364 7.83037C35.0271 8.80537 35.6404 12.1406 34.7357 16.5322C34.0523 19.8523 32.4184 23.7984 30.1911 27.6606C27.9075 31.6202 25.2928 35.1088 22.704 37.3716C19.4282 40.2351 16.2611 41.2714 14.6027 40.3149C12.9934 39.3876 12.378 36.3461 13.1501 32.2802C13.8024 28.8446 15.4395 24.6279 17.8078 20.5196H17.8086Z" stroke="#00D8FF" stroke-width="1.67081"/>
<path d="M17.8149 27.671C15.4619 23.6071 13.8599 19.493 13.1913 16.0786C12.3864 11.9647 12.9554 8.81936 14.5764 7.88111C16.2656 6.90311 19.4611 8.03748 22.814 11.0146C25.349 13.2654 27.9521 16.651 30.1858 20.5094C32.4759 24.4653 34.1923 28.4731 34.8599 31.8459C35.7048 36.1141 35.021 39.3753 33.3641 40.3344C31.7564 41.2651 28.8144 40.2798 25.6773 37.5802C23.0268 35.2994 20.1911 31.7754 17.8149 27.671Z" stroke="#00D8FF" stroke-width="1.67081"/>
</g>
<defs>
<clipPath id="clip0_402_1275">
<rect width="48" height="48" fill="white"/>
</clipPath>
</defs>
</svg>
