<svg width="48" height="48" viewBox="0 0 48 48" fill="none" xmlns="http://www.w3.org/2000/svg">
<g clip-path="url(#clip0_402_1284)">
<path d="M36.75 0H11.25C5.0368 0 0 5.0368 0 11.25V36.75C0 42.9632 5.0368 48 11.25 48H36.75C42.9632 48 48 42.9632 48 36.75V11.25C48 5.0368 42.9632 0 36.75 0Z" fill="#007ACC"/>
<path d="M10.6148 24.1592L10.5996 26.125H16.8471V43.8773H21.2663V26.125H27.5138V24.1973C27.5138 23.1306 27.4911 22.2392 27.4605 22.2164C27.4377 22.186 23.6357 22.1706 19.0262 22.1783L10.6377 22.2012L10.6148 24.1592ZM38.7315 22.1453C39.9505 22.4502 40.8801 22.9911 41.7334 23.8748C42.1754 24.3473 42.8305 25.2083 42.8839 25.414C42.8991 25.4749 40.8115 26.8769 39.5468 27.6616C39.501 27.6921 39.318 27.4939 39.1124 27.1892C38.4953 26.2902 37.8477 25.9015 36.8571 25.8331C35.4019 25.7339 34.4648 26.4959 34.4725 27.7682C34.4725 28.1416 34.5257 28.3624 34.6782 28.6673C34.998 29.3301 35.5924 29.7263 37.4592 30.5339C40.8953 32.0121 42.3657 32.9873 43.2801 34.3739C44.301 35.9205 44.5296 38.3892 43.8362 40.2254C43.0744 42.2215 41.1848 43.5777 38.5257 44.0273C37.7029 44.172 35.7524 44.1492 34.8687 43.9892C32.941 43.6463 31.1125 42.694 29.9849 41.4445C29.5429 40.9568 28.6819 39.6844 28.7354 39.5929C28.758 39.5625 28.9562 39.4407 29.1771 39.3111C29.3905 39.1892 30.1982 38.7244 30.96 38.2825L32.3391 37.4824L32.6286 37.9092C33.0325 38.5262 33.9162 39.372 34.4496 39.6539C35.9809 40.4616 38.0839 40.3472 39.12 39.4178C39.562 39.0139 39.7448 38.5949 39.7448 37.9778C39.7448 37.4215 39.6762 37.1777 39.3867 36.7587C39.0134 36.2254 38.2515 35.7758 36.0876 34.8387C33.6115 33.772 32.5448 33.1092 31.5696 32.0577C31.0058 31.4483 30.4724 30.4729 30.2515 29.6577C30.0687 28.9797 30.0229 27.2806 30.1677 26.5949C30.678 24.2026 32.4839 22.534 35.0895 22.0386C35.9354 21.8787 37.9009 21.9396 38.7315 22.1453Z" fill="white"/>
</g>
<defs>
<clipPath id="clip0_402_1284">
<rect width="48" height="48" fill="white"/>
</clipPath>
</defs>
</svg>
