<svg width="48" height="48" viewBox="0 0 48 48" fill="none" xmlns="http://www.w3.org/2000/svg">
<g clip-path="url(#clip0_383_97)">
<path d="M36.75 0H11.25C5.0368 0 0 5.0368 0 11.25V36.75C0 42.9632 5.0368 48 11.25 48H36.75C42.9632 48 48 42.9632 48 36.75V11.25C48 5.0368 42.9632 0 36.75 0Z" fill="#242938"/>
<path d="M42.579 10.8005L24.9855 42.2605C24.6222 42.9102 23.689 42.914 23.3204 42.2676L5.37791 10.8033C4.97629 10.099 5.57854 9.2459 6.37691 9.38859L23.9892 12.5367C24.1015 12.5567 24.2166 12.5565 24.3289 12.536L41.5729 9.3929C42.3685 9.24796 42.9735 10.0945 42.579 10.8005Z" fill="url(#paint0_linear_383_97)"/>
<path d="M32.3782 5.25938L19.3585 7.81032C19.2545 7.83071 19.1602 7.8851 19.0905 7.96493C19.0207 8.04476 18.9795 8.1455 18.9732 8.25132L18.1722 21.7778C18.1678 21.8519 18.1808 21.9261 18.2101 21.9943C18.2394 22.0626 18.2842 22.1231 18.3409 22.1711C18.3976 22.219 18.4648 22.2531 18.537 22.2706C18.6092 22.2881 18.6844 22.2885 18.7568 22.2718L22.3818 21.4354C22.721 21.3572 23.0273 21.6559 22.9578 21.9969L21.8808 27.2706C21.8082 27.6255 22.1416 27.9289 22.4881 27.8237L24.727 27.1434C25.0741 27.0381 25.4077 27.3424 25.3342 27.6977L23.6227 35.9813C23.5156 36.4995 24.2048 36.7821 24.4923 36.3377L24.6843 36.0411L35.2934 14.8686C35.4712 14.5142 35.1648 14.1099 34.7753 14.1849L31.0443 14.9051C30.6937 14.9726 30.3953 14.6462 30.4942 14.3033L32.9296 5.86088C33.0286 5.51738 32.7292 5.19076 32.3782 5.25938Z" fill="url(#paint1_linear_383_97)"/>
</g>
<defs>
<linearGradient id="paint0_linear_383_97" x1="4.93991" y1="8.26415" x2="26.8364" y2="38.0013" gradientUnits="userSpaceOnUse">
<stop stop-color="#41D1FF"/>
<stop offset="1" stop-color="#BD34FE"/>
</linearGradient>
<linearGradient id="paint1_linear_383_97" x1="22.9777" y1="5.95182" x2="26.9386" y2="33.1238" gradientUnits="userSpaceOnUse">
<stop stop-color="#FFEA83"/>
<stop offset="0.083" stop-color="#FFDD35"/>
<stop offset="1" stop-color="#FFA800"/>
</linearGradient>
<clipPath id="clip0_383_97">
<rect width="48" height="48" fill="white"/>
</clipPath>
</defs>
</svg>
