<svg width="64" height="64" viewBox="0 0 64 64" fill="none" xmlns="http://www.w3.org/2000/svg">
<path d="M29.1818 42.613C26.6114 44.3713 22.5941 44.2961 20.112 43.4978C17.6299 42.6996 16.2589 41.7255 14.6259 39.6929C12.9929 37.6604 11.9437 34.4567 12.0598 31.508C12.1759 28.5593 12.9589 26.4383 14.5817 24.3849C16.2044 22.3315 17.579 21.3454 20.0678 20.5357C22.5566 19.726 24.5116 19.6998 27.1467 20.5357C29.7817 21.3716 33.1195 24.8715 33.1195 24.8715L36.6589 20.8012C36.6589 20.8012 34.6687 18.6443 33.1195 17.6157C31.5703 16.587 29.6139 15.689 27.1467 15.1823C24.6795 14.6756 22.3276 14.703 20.0678 15.1823C17.808 15.6617 16.5304 16.154 14.5817 17.3945C13.5028 18.0813 11.982 19.0938 10.7694 20.5357C9.79175 21.6983 8.88446 23.0844 8.33603 24.2363C7.10736 26.8169 6.82671 28.651 6.74328 31.508C6.65984 34.365 7.33331 37.3669 8.46875 39.6929C9.6042 42.019 10.15 42.8395 12.5391 45.0305C14.7017 47.0137 17.7838 48.3692 20.112 48.8512C22.7687 49.4013 25.6841 49.2549 28.1126 48.5699C30.3345 47.9432 32.1416 46.8331 33.1195 46.0639C35.1662 44.454 36.2323 43.2523 37.3226 40.8875C38.4128 38.5228 38.5171 34.1626 38.5171 34.1626H38.6498L49.7991 48.1876H57.1877L44.0475 31.1098L55.6392 16.3326H49.3567L38.0747 30.6231H23.9612V35.7553H33.1563C33.1563 35.7553 33.218 37.633 32.3231 39.3832C31.6478 40.7039 30.2873 41.8568 29.1818 42.613Z" fill="#F0F4F8"/>
</svg>
