<svg width="203" height="64" viewBox="0 0 203 64" fill="none" xmlns="http://www.w3.org/2000/svg">
<path d="M29.1818 42.613C26.6114 44.3713 22.5941 44.2961 20.112 43.4978C17.6299 42.6996 16.2589 41.7255 14.6259 39.6929C12.9929 37.6604 11.9437 34.4567 12.0598 31.508C12.1759 28.5593 12.9589 26.4383 14.5817 24.3849C16.2044 22.3315 17.579 21.3454 20.0678 20.5357C22.5566 19.726 24.5116 19.6998 27.1467 20.5357C29.7817 21.3716 33.1195 24.8715 33.1195 24.8715L36.6589 20.8012C36.6589 20.8012 34.6687 18.6443 33.1195 17.6157C31.5703 16.587 29.6139 15.689 27.1467 15.1823C24.6795 14.6756 22.3276 14.703 20.0678 15.1823C17.808 15.6617 16.5304 16.154 14.5817 17.3945C13.5028 18.0813 11.982 19.0938 10.7694 20.5357C9.79175 21.6983 8.88446 23.0844 8.33603 24.2363C7.10736 26.8169 6.82671 28.651 6.74328 31.508C6.65984 34.365 7.33331 37.3669 8.46875 39.6929C9.6042 42.019 10.15 42.8395 12.5391 45.0305C14.7017 47.0137 17.7838 48.3692 20.112 48.8512C22.7687 49.4013 25.6841 49.2549 28.1126 48.5699C30.3345 47.9432 32.1416 46.8331 33.1195 46.0639C35.1662 44.454 36.2323 43.2523 37.3226 40.8875C38.4128 38.5228 38.5171 34.1626 38.5171 34.1626H38.6498L49.7991 48.1876H57.1877L44.0475 31.1098L55.6392 16.3326H49.3567L38.0747 30.6231H23.9612V35.7553H33.1563C33.1563 35.7553 33.218 37.633 32.3231 39.3832C31.6478 40.7039 30.2873 41.8568 29.1818 42.613Z" fill="#F0F4F8"/>
<path d="M73.288 30.216H82.24C82.224 32.872 81.416 35.064 79.816 36.792C78.216 38.504 76.16 39.36 73.648 39.36C71.168 39.36 69.096 38.536 67.432 36.888C65.784 35.224 64.96 33.136 64.96 30.624C64.96 28.096 65.776 26 67.408 24.336C69.04 22.672 71.096 21.84 73.576 21.84C75.672 21.84 77.504 22.44 79.072 23.64C80.64 24.824 81.616 26.36 82 28.248H78.256C78.016 27.64 77.672 27.12 77.224 26.688C76.776 26.24 76.24 25.896 75.616 25.656C75.008 25.416 74.352 25.296 73.648 25.296C72.16 25.296 70.952 25.792 70.024 26.784C69.096 27.776 68.632 29.056 68.632 30.624C68.632 31.648 68.84 32.56 69.256 33.36C69.672 34.16 70.256 34.784 71.008 35.232C71.776 35.68 72.656 35.904 73.648 35.904C74.368 35.904 75.048 35.784 75.688 35.544C76.328 35.304 76.872 34.968 77.32 34.536C77.784 34.088 78.12 33.584 78.328 33.024H73.288V30.216ZM94.285 39L91.021 33.264H88.693V39H85.045V22.2H91.837C92.941 22.2 93.941 22.44 94.837 22.92C95.733 23.384 96.429 24.04 96.925 24.888C97.437 25.736 97.693 26.696 97.693 27.768C97.693 28.84 97.421 29.808 96.877 30.672C96.333 31.536 95.589 32.192 94.645 32.64L98.365 39H94.285ZM88.693 25.56V29.904H91.597C92.333 29.904 92.917 29.704 93.349 29.304C93.797 28.904 94.021 28.384 94.021 27.744C94.021 27.312 93.925 26.936 93.733 26.616C93.541 26.28 93.261 26.024 92.893 25.848C92.525 25.656 92.093 25.56 91.597 25.56H88.693ZM100.912 39V22.2H104.56V39H100.912ZM115.757 30.216H124.709C124.693 32.872 123.885 35.064 122.285 36.792C120.685 38.504 118.629 39.36 116.117 39.36C113.637 39.36 111.565 38.536 109.901 36.888C108.253 35.224 107.429 33.136 107.429 30.624C107.429 28.096 108.245 26 109.877 24.336C111.509 22.672 113.565 21.84 116.045 21.84C118.141 21.84 119.973 22.44 121.541 23.64C123.109 24.824 124.085 26.36 124.469 28.248H120.725C120.485 27.64 120.141 27.12 119.693 26.688C119.245 26.24 118.709 25.896 118.085 25.656C117.477 25.416 116.821 25.296 116.117 25.296C114.629 25.296 113.421 25.792 112.493 26.784C111.565 27.776 111.101 29.056 111.101 30.624C111.101 31.648 111.309 32.56 111.725 33.36C112.141 34.16 112.725 34.784 113.477 35.232C114.245 35.68 115.125 35.904 116.117 35.904C116.837 35.904 117.517 35.784 118.157 35.544C118.797 35.304 119.341 34.968 119.789 34.536C120.253 34.088 120.589 33.584 120.797 33.024H115.757V30.216ZM135.482 39.36C132.922 39.36 130.786 38.528 129.074 36.864C127.378 35.184 126.53 33.096 126.53 30.6C126.53 28.104 127.378 26.024 129.074 24.36C130.786 22.68 132.922 21.84 135.482 21.84C137.162 21.84 138.682 22.224 140.042 22.992C141.418 23.744 142.49 24.792 143.258 26.136C144.026 27.464 144.41 28.952 144.41 30.6C144.41 33.112 143.562 35.2 141.866 36.864C140.17 38.528 138.042 39.36 135.482 39.36ZM135.482 35.928C136.474 35.928 137.37 35.704 138.17 35.256C138.97 34.792 139.594 34.152 140.042 33.336C140.506 32.52 140.738 31.608 140.738 30.6C140.738 29.08 140.234 27.816 139.226 26.808C138.234 25.784 136.986 25.272 135.482 25.272C133.994 25.272 132.738 25.784 131.714 26.808C130.706 27.816 130.202 29.08 130.202 30.6C130.202 32.12 130.706 33.392 131.714 34.416C132.738 35.424 133.994 35.928 135.482 35.928ZM156.512 39L153.248 33.264H150.92V39H147.272V22.2H154.064C155.168 22.2 156.168 22.44 157.064 22.92C157.96 23.384 158.656 24.04 159.152 24.888C159.664 25.736 159.92 26.696 159.92 27.768C159.92 28.84 159.648 29.808 159.104 30.672C158.56 31.536 157.816 32.192 156.872 32.64L160.592 39H156.512ZM150.92 25.56V29.904H153.824C154.56 29.904 155.144 29.704 155.576 29.304C156.024 28.904 156.248 28.384 156.248 27.744C156.248 27.312 156.152 26.936 155.96 26.616C155.768 26.28 155.488 26.024 155.12 25.848C154.752 25.656 154.32 25.56 153.824 25.56H150.92ZM177.155 39H172.715L166.787 30.792V39H163.139V22.2H166.787V29.952L172.283 22.2H176.531L170.795 30.24L177.155 39ZM178.889 39V22.2H182.537V39H178.889ZM197.021 22.2H200.573V39H197.549L189.941 28.512V39H186.365V22.2H189.653L197.021 32.448V22.2Z" fill="#F0F4F8"/>
</svg>
