<svg width="48" height="48" viewBox="0 0 48 48" fill="none" xmlns="http://www.w3.org/2000/svg">
<path d="M24.2041 11C24.2969 11 24.3878 11.0264 24.4668 11.0752C24.5457 11.124 24.6099 11.1934 24.6514 11.2764V11.2773L28.666 19.2998L28.8145 19.5977L29.1123 19.7461L37.1348 23.7578V23.7588C37.2179 23.8003 37.288 23.8643 37.3369 23.9434C37.3857 24.0223 37.4121 24.1133 37.4121 24.2061C37.4121 24.2989 37.3857 24.3898 37.3369 24.4688C37.3003 24.5279 37.2522 24.579 37.1953 24.6182L37.1348 24.6533L29.1123 28.665L28.8145 28.8145L28.665 29.1123L24.6533 37.1348C24.6118 37.2179 24.5478 37.2881 24.4688 37.3369C24.3898 37.3857 24.2989 37.4121 24.2061 37.4121C24.1132 37.4121 24.0223 37.3857 23.9434 37.3369C23.8644 37.2881 23.8003 37.2179 23.7588 37.1348H23.7578L19.7461 29.1123L19.5977 28.8145L19.2988 28.665L11.2773 24.6533H11.2764C11.1934 24.6118 11.124 24.5477 11.0752 24.4688C11.0264 24.3898 11 24.2989 11 24.2061C11 24.1132 11.0264 24.0223 11.0752 23.9434C11.124 23.8644 11.1934 23.8003 11.2764 23.7588L11.2773 23.7578L19.2969 19.7461L19.5957 19.5977L19.7441 19.2988L23.7559 11.2773L23.7568 11.2764C23.7983 11.1934 23.8625 11.124 23.9414 11.0752C24.0204 11.0264 24.1113 11 24.2041 11Z" fill="#D4E86D" stroke="#D4E86D" stroke-width="2"/>
</svg>
